<svg width="20" height="20" viewBox="0 0 20 20" fill="none" xmlns="http://www.w3.org/2000/svg">
<path fill-rule="evenodd" clip-rule="evenodd" d="M8.44216 5.91019C6.38975 7.13728 5.25553 8.56888 5.03949 10.2561C4.66141 12.8126 7.09189 14.0397 8.33414 12.9148C9.57638 11.79 8.82023 10.3584 7.95606 9.94936C7.03788 9.59146 6.49777 9.74484 6.6058 9.18243C6.71382 8.67114 7.95606 7.23954 9.09028 6.52373C9.14429 6.4726 9.19831 6.37035 9.14429 6.26809C9.09028 6.21696 8.98226 6.1147 8.87424 5.91019C8.71221 5.80793 8.55018 5.80793 8.44216 5.91019Z" fill="#7F7F7F"/>
<path fill-rule="evenodd" clip-rule="evenodd" d="M14.2761 5.9187C12.2237 7.15288 11.0895 8.59276 10.8735 10.2383C10.4954 12.8096 12.9259 14.0437 14.1681 12.9124C15.4104 11.7811 14.6542 10.3412 13.79 9.92979C12.9259 9.5184 12.3858 9.67267 12.4398 9.15843C12.5478 8.64419 13.79 7.20431 14.9243 6.48437C14.9783 6.43294 15.0323 6.33009 14.9783 6.22724C14.9243 6.17582 14.8162 6.07297 14.7082 5.86727C14.5462 5.81585 14.4382 5.81585 14.2761 5.9187Z" fill="#7F7F7F"/>
</svg>