<svg width="44" height="44" viewBox="0 0 44 44" fill="none" xmlns="http://www.w3.org/2000/svg">
<path d="M22 0.375C33.9432 0.375 43.625 10.0568 43.625 22C43.625 33.9432 33.9432 43.625 22 43.625C10.0568 43.625 0.375 33.9432 0.375 22C0.375 10.0568 10.0568 0.375 22 0.375Z" stroke="#FFA454" stroke-width="0.749795"/>
<path fill-rule="evenodd" clip-rule="evenodd" d="M20.1306 17.092C17.6677 18.5645 16.3066 20.2825 16.0474 22.3072C15.5937 25.3749 18.5103 26.8474 20.001 25.4976C21.4917 24.1478 20.5843 22.4299 19.5473 21.939C18.4455 21.5096 17.7973 21.6936 17.927 21.0187C18.0566 20.4052 19.5473 18.6872 20.9083 17.8283C20.9732 17.7669 21.038 17.6442 20.9732 17.5215C20.9083 17.4602 20.7787 17.3374 20.6491 17.092C20.4547 16.9693 20.2602 16.9693 20.1306 17.092Z" fill="#FF7700"/>
<path fill-rule="evenodd" clip-rule="evenodd" d="M27.1306 17.1022C24.6677 18.5833 23.3066 20.3111 23.0474 22.2858C22.5937 25.3713 25.5103 26.8523 27.001 25.4947C28.4917 24.1371 27.5843 22.4092 26.5473 21.9156C25.5103 21.4219 24.8621 21.607 24.927 20.9899C25.0566 20.3728 26.5473 18.645 27.9083 17.781C27.9732 17.7193 28.038 17.5959 27.9732 17.4725C27.9083 17.4108 27.7787 17.2874 27.6491 17.0405C27.4547 16.9788 27.325 16.9788 27.1306 17.1022Z" fill="#FF7700"/>
</svg>
