<svg width="1440" height="201" viewBox="0 0 1440 201" fill="none" xmlns="http://www.w3.org/2000/svg">
<mask id="path-1-outside-1_613_2511" maskUnits="userSpaceOnUse" x="-32" y="0" width="1492" height="223" fill="black">
<rect fill="white" x="-32" width="1492" height="223"/>
<path d="M33.3862 219L-29.8481 4.0625H33.0894L63.3706 138.547H65.1519L100.48 4.0625H150.355L185.98 139.141H187.761L218.042 4.0625H280.98L217.746 219H163.417L126.308 96.0938H124.527L87.4175 219H33.3862ZM288.117 219V4.0625H441.601V49.7812H344.523V88.6719H433.586V134.391H344.523V173.281H441.304V219H288.117ZM459.129 219V4.0625H515.535V173.281H603.113V219H459.129ZM748.297 83.9219C746.516 63.7344 732.859 50.375 710 50.375C680.312 50.375 663.391 73.2344 663.391 111.531C663.391 151.906 680.609 172.688 709.703 172.688C731.375 172.688 745.328 160.812 748.297 141.812L805.594 142.406C802.625 179.219 770.266 221.969 708.516 221.969C649.438 221.969 605.203 182.781 605.203 111.531C605.203 39.9844 650.625 1.09375 708.516 1.09375C761.953 1.09375 800.844 31.0781 805.594 83.9219H748.297ZM1027.37 111.531C1027.37 183.078 981.652 221.969 923.465 221.969C864.684 221.969 819.262 182.781 819.262 111.531C819.262 39.9844 864.684 1.09375 923.465 1.09375C981.652 1.09375 1027.37 39.9844 1027.37 111.531ZM969.184 111.531C969.184 72.0469 952.856 50.375 923.465 50.375C893.777 50.375 877.449 72.0469 877.449 111.531C877.449 151.016 893.777 172.688 923.465 172.688C952.856 172.688 969.184 151.016 969.184 111.531ZM1042.82 4.0625H1113.18L1164.24 129.047H1166.91L1217.98 4.0625H1288.34V219H1233.12V92.5312H1231.34L1182.35 217.516H1148.51L1099.82 91.6406H1098.04V219H1042.82V4.0625ZM1305.27 219V4.0625H1458.75V49.7812H1361.68V88.6719H1450.74V134.391H1361.68V173.281H1458.46V219H1305.27Z"/>
</mask>
<path d="M33.3862 219L-29.8481 4.0625H33.0894L63.3706 138.547H65.1519L100.48 4.0625H150.355L185.98 139.141H187.761L218.042 4.0625H280.98L217.746 219H163.417L126.308 96.0938H124.527L87.4175 219H33.3862ZM288.117 219V4.0625H441.601V49.7812H344.523V88.6719H433.586V134.391H344.523V173.281H441.304V219H288.117ZM459.129 219V4.0625H515.535V173.281H603.113V219H459.129ZM748.297 83.9219C746.516 63.7344 732.859 50.375 710 50.375C680.312 50.375 663.391 73.2344 663.391 111.531C663.391 151.906 680.609 172.688 709.703 172.688C731.375 172.688 745.328 160.812 748.297 141.812L805.594 142.406C802.625 179.219 770.266 221.969 708.516 221.969C649.438 221.969 605.203 182.781 605.203 111.531C605.203 39.9844 650.625 1.09375 708.516 1.09375C761.953 1.09375 800.844 31.0781 805.594 83.9219H748.297ZM1027.37 111.531C1027.37 183.078 981.652 221.969 923.465 221.969C864.684 221.969 819.262 182.781 819.262 111.531C819.262 39.9844 864.684 1.09375 923.465 1.09375C981.652 1.09375 1027.37 39.9844 1027.37 111.531ZM969.184 111.531C969.184 72.0469 952.856 50.375 923.465 50.375C893.777 50.375 877.449 72.0469 877.449 111.531C877.449 151.016 893.777 172.688 923.465 172.688C952.856 172.688 969.184 151.016 969.184 111.531ZM1042.82 4.0625H1113.18L1164.24 129.047H1166.91L1217.98 4.0625H1288.34V219H1233.12V92.5312H1231.34L1182.35 217.516H1148.51L1099.82 91.6406H1098.04V219H1042.82V4.0625ZM1305.27 219V4.0625H1458.75V49.7812H1361.68V88.6719H1450.74V134.391H1361.68V173.281H1458.46V219H1305.27Z" fill="white" fill-opacity="0.1"/>
<path d="M33.3862 219L32.4269 219.282L32.6381 220H33.3862V219ZM-29.8481 4.0625V3.0625H-31.1847L-30.8075 4.34474L-29.8481 4.0625ZM33.0894 4.0625L34.0649 3.84283L33.8892 3.0625H33.0894V4.0625ZM63.3706 138.547L62.395 138.767L62.5707 139.547H63.3706V138.547ZM65.1519 138.547V139.547H65.9231L66.119 138.801L65.1519 138.547ZM100.48 4.0625V3.0625H99.7087L99.5128 3.80843L100.48 4.0625ZM150.355 4.0625L151.322 3.80749L151.125 3.0625H150.355V4.0625ZM185.98 139.141L185.013 139.396L185.21 140.141H185.98V139.141ZM187.761 139.141V140.141H188.562L188.737 139.359L187.761 139.141ZM218.042 4.0625V3.0625H217.242L217.067 3.84375L218.042 4.0625ZM280.98 4.0625L281.939 4.34474L282.317 3.0625H280.98V4.0625ZM217.746 219V220H218.494L218.705 219.282L217.746 219ZM163.417 219L162.46 219.289L162.675 220H163.417V219ZM126.308 96.0938L127.265 95.8047L127.051 95.0938H126.308V96.0938ZM124.527 96.0938V95.0938H123.784L123.57 95.8047L124.527 96.0938ZM87.4175 219V220H88.1601L88.3748 219.289L87.4175 219ZM33.3862 219L34.3456 218.718L-28.8888 3.78026L-29.8481 4.0625L-30.8075 4.34474L32.4269 219.282L33.3862 219ZM-29.8481 4.0625V5.0625H33.0894V4.0625V3.0625H-29.8481V4.0625ZM33.0894 4.0625L32.1138 4.28217L62.395 138.767L63.3706 138.547L64.3462 138.327L34.0649 3.84283L33.0894 4.0625ZM63.3706 138.547V139.547H65.1519V138.547V137.547H63.3706V138.547ZM65.1519 138.547L66.119 138.801L101.447 4.31657L100.48 4.0625L99.5128 3.80843L64.1847 138.293L65.1519 138.547ZM100.48 4.0625V5.0625H150.355V4.0625V3.0625H100.48V4.0625ZM150.355 4.0625L149.388 4.31751L185.013 139.396L185.98 139.141L186.947 138.886L151.322 3.80749L150.355 4.0625ZM185.98 139.141V140.141H187.761V139.141V138.141H185.98V139.141ZM187.761 139.141L188.737 139.359L219.018 4.28125L218.042 4.0625L217.067 3.84375L186.785 138.922L187.761 139.141ZM218.042 4.0625V5.0625H280.98V4.0625V3.0625H218.042V4.0625ZM280.98 4.0625L280.021 3.78026L216.786 218.718L217.746 219L218.705 219.282L281.939 4.34474L280.98 4.0625ZM217.746 219V218H163.417V219V220H217.746V219ZM163.417 219L164.375 218.711L127.265 95.8047L126.308 96.0938L125.351 96.3828L162.46 219.289L163.417 219ZM126.308 96.0938V95.0938H124.527V96.0938V97.0938H126.308V96.0938ZM124.527 96.0938L123.57 95.8047L86.4602 218.711L87.4175 219L88.3748 219.289L125.484 96.3828L124.527 96.0938ZM87.4175 219V218H33.3862V219V220H87.4175V219ZM288.117 219H287.117V220H288.117V219ZM288.117 4.0625V3.0625H287.117V4.0625H288.117ZM441.601 4.0625H442.601V3.0625H441.601V4.0625ZM441.601 49.7812V50.7812H442.601V49.7812H441.601ZM344.523 49.7812V48.7812H343.523V49.7812H344.523ZM344.523 88.6719H343.523V89.6719H344.523V88.6719ZM433.586 88.6719H434.586V87.6719H433.586V88.6719ZM433.586 134.391V135.391H434.586V134.391H433.586ZM344.523 134.391V133.391H343.523V134.391H344.523ZM344.523 173.281H343.523V174.281H344.523V173.281ZM441.304 173.281H442.304V172.281H441.304V173.281ZM441.304 219V220H442.304V219H441.304ZM288.117 219H289.117V4.0625H288.117H287.117V219H288.117ZM288.117 4.0625V5.0625H441.601V4.0625V3.0625H288.117V4.0625ZM441.601 4.0625H440.601V49.7812H441.601H442.601V4.0625H441.601ZM441.601 49.7812V48.7812H344.523V49.7812V50.7812H441.601V49.7812ZM344.523 49.7812H343.523V88.6719H344.523H345.523V49.7812H344.523ZM344.523 88.6719V89.6719H433.586V88.6719V87.6719H344.523V88.6719ZM433.586 88.6719H432.586V134.391H433.586H434.586V88.6719H433.586ZM433.586 134.391V133.391H344.523V134.391V135.391H433.586V134.391ZM344.523 134.391H343.523V173.281H344.523H345.523V134.391H344.523ZM344.523 173.281V174.281H441.304V173.281V172.281H344.523V173.281ZM441.304 173.281H440.304V219H441.304H442.304V173.281H441.304ZM441.304 219V218H288.117V219V220H441.304V219ZM459.129 219H458.129V220H459.129V219ZM459.129 4.0625V3.0625H458.129V4.0625H459.129ZM515.535 4.0625H516.535V3.0625H515.535V4.0625ZM515.535 173.281H514.535V174.281H515.535V173.281ZM603.113 173.281H604.113V172.281H603.113V173.281ZM603.113 219V220H604.113V219H603.113ZM459.129 219H460.129V4.0625H459.129H458.129V219H459.129ZM459.129 4.0625V5.0625H515.535V4.0625V3.0625H459.129V4.0625ZM515.535 4.0625H514.535V173.281H515.535H516.535V4.0625H515.535ZM515.535 173.281V174.281H603.113V173.281V172.281H515.535V173.281ZM603.113 173.281H602.113V219H603.113H604.113V173.281H603.113ZM603.113 219V218H459.129V219V220H603.113V219ZM748.297 83.9219L747.301 84.017L747.388 84.9219H748.297V83.9219ZM709.703 172.688L709.698 173.688L709.71 173.687L709.703 172.688ZM748.297 141.812L748.307 140.813L747.448 140.804L747.31 141.652L748.297 141.812ZM805.594 142.406L806.59 142.491L806.681 141.417L805.604 141.406L805.594 142.406ZM605.203 111.531L604.203 111.529V111.533L605.203 111.531ZM805.594 83.9219V84.9219H806.688L806.59 83.8324L805.594 83.9219ZM748.297 83.9219L749.292 83.8267C748.308 73.5312 744.361 64.8964 737.668 58.8368C730.975 52.7764 721.628 49.375 710 49.375V50.375V51.375C721.231 51.375 730.068 54.6533 736.326 60.3194C742.585 65.9864 746.356 74.125 747.301 84.017L748.297 83.9219ZM710 50.375V49.375C694.799 49.375 682.838 55.1767 674.709 65.9332C666.609 76.6509 662.391 92.1818 662.391 111.531H663.391H664.391C664.391 92.4354 668.559 77.3882 676.305 67.1391C684.021 56.9288 695.365 51.375 710 51.375V50.375ZM663.391 111.531H662.391C662.391 131.841 666.719 147.343 674.847 157.808C683.005 168.31 694.893 173.612 709.698 173.688L709.703 172.688L709.708 171.688C695.419 171.615 684.151 166.526 676.426 156.581C668.672 146.598 664.391 131.597 664.391 111.531H663.391ZM709.703 172.688L709.71 173.687C720.795 173.612 729.9 170.631 736.644 165.151C743.394 159.667 747.692 151.751 749.284 141.973L748.297 141.812L747.31 141.652C745.784 151.022 741.696 158.469 735.383 163.599C729.065 168.732 720.431 171.615 709.696 171.688L709.703 172.688ZM748.297 141.812L748.286 142.812L805.583 143.406L805.594 142.406L805.604 141.406L748.307 140.813L748.297 141.812ZM805.594 142.406L804.597 142.322C801.522 178.644 769.867 220.969 708.516 220.969V221.969V222.969C770.961 222.969 803.431 179.793 806.59 142.491L805.594 142.406ZM708.516 221.969V220.969C679.275 220.969 653.756 211.251 635.528 192.767C617.302 174.284 606.277 146.944 606.203 111.529L605.203 111.531L604.203 111.533C604.278 147.369 615.444 175.247 634.104 194.171C652.764 213.093 678.826 222.969 708.516 222.969V221.969ZM605.203 111.531L606.203 111.533C606.277 75.9768 617.595 48.6364 635.97 30.1881C654.348 11.7366 679.871 2.09375 708.516 2.09375V1.09375V0.09375C679.418 0.09375 653.359 9.89619 634.553 28.7767C615.745 47.6604 604.278 75.5388 604.203 111.529L605.203 111.531ZM708.516 1.09375V2.09375C735.125 2.09375 757.966 9.5373 774.729 23.4607C791.482 37.3753 802.244 57.827 804.598 84.0114L805.594 83.9219L806.59 83.8324C804.193 57.173 793.21 36.2107 776.007 21.9221C758.815 7.64239 735.492 0.09375 708.516 0.09375V1.09375ZM805.594 83.9219V82.9219H748.297V83.9219V84.9219H805.594V83.9219ZM819.262 111.531L818.262 111.529V111.533L819.262 111.531ZM923.465 172.688L923.46 173.688L923.47 173.688L923.465 172.688ZM969.184 111.531L968.184 111.528V111.535L969.184 111.531ZM1027.37 111.531H1026.37C1026.37 147.084 1014.98 174.423 996.477 192.872C977.969 211.325 952.26 220.969 923.465 220.969V221.969V222.969C952.709 222.969 978.953 213.168 997.889 194.288C1016.83 175.405 1028.37 147.525 1028.37 111.531H1027.37ZM923.465 221.969V220.969C894.374 220.969 868.629 211.214 850.139 192.706C831.653 174.202 820.336 146.862 820.262 111.529L819.262 111.531L818.262 111.533C818.337 147.303 829.804 175.181 848.724 194.12C867.641 213.056 893.923 222.969 923.465 222.969V221.969ZM819.262 111.531L820.262 111.533C820.336 75.9769 831.654 48.6379 850.138 30.1902C868.626 11.7391 894.371 2.09375 923.465 2.09375V1.09375V0.09375C893.926 0.09375 867.644 9.89369 848.725 28.7746C829.803 47.659 818.336 75.5388 818.262 111.529L819.262 111.531ZM923.465 1.09375V2.09375C952.26 2.09375 977.969 11.7379 996.477 30.1906C1014.98 48.6391 1026.37 75.978 1026.37 111.531H1027.37H1028.37C1028.37 75.5376 1016.83 47.6578 997.889 28.7743C978.953 9.89493 952.709 0.09375 923.465 0.09375V1.09375ZM877.449 111.531H876.449C876.449 131.39 880.552 146.888 888.526 157.462C896.532 168.08 908.349 173.612 923.46 173.688L923.465 172.688L923.47 171.688C908.894 171.615 897.702 166.31 890.123 156.258C882.511 146.163 878.449 131.157 878.449 111.531H877.449ZM923.465 172.688L923.47 173.688C938.435 173.612 950.214 168.078 958.201 157.462C966.155 146.887 970.258 131.389 970.184 111.527L969.184 111.531L968.184 111.535C968.258 131.158 964.196 146.164 956.602 156.259C949.04 166.312 937.885 171.615 923.46 171.688L923.465 172.688ZM969.184 111.531L970.184 111.535C970.258 91.6008 966.156 76.065 958.201 65.4897C950.213 54.8712 938.432 49.375 923.465 49.375V50.375V51.375C937.889 51.375 949.041 56.6405 956.602 66.692C964.196 76.7866 968.258 91.8289 968.184 111.528L969.184 111.531ZM923.465 50.375V49.375C908.352 49.375 896.533 54.8693 888.526 65.4888C880.552 76.064 876.449 91.5996 876.449 111.531H877.449H878.449C878.449 91.8301 882.511 76.7876 890.123 66.6929C897.701 56.6425 908.89 51.375 923.465 51.375V50.375ZM1042.82 4.0625V3.0625H1041.82V4.0625H1042.82ZM1113.18 4.0625L1114.11 3.6843L1113.85 3.0625H1113.18V4.0625ZM1164.24 129.047L1163.32 129.425L1163.57 130.047H1164.24V129.047ZM1166.91 129.047V130.047H1167.59L1167.84 129.425L1166.91 129.047ZM1217.98 4.0625V3.0625H1217.31L1217.05 3.6843L1217.98 4.0625ZM1288.34 4.0625H1289.34V3.0625H1288.34V4.0625ZM1288.34 219V220H1289.34V219H1288.34ZM1233.12 219H1232.12V220H1233.12V219ZM1233.12 92.5312H1234.12V91.5312H1233.12V92.5312ZM1231.34 92.5312V91.5312H1230.65L1230.41 92.1664L1231.34 92.5312ZM1182.35 217.516V218.516H1183.03L1183.28 217.881L1182.35 217.516ZM1148.51 217.516L1147.58 217.876L1147.82 218.516H1148.51V217.516ZM1099.82 91.6406L1100.75 91.2799L1100.51 90.6406H1099.82V91.6406ZM1098.04 91.6406V90.6406H1097.04V91.6406H1098.04ZM1098.04 219V220H1099.04V219H1098.04ZM1042.82 219H1041.82V220H1042.82V219ZM1042.82 4.0625V5.0625H1113.18V4.0625V3.0625H1042.82V4.0625ZM1113.18 4.0625L1112.25 4.4407L1163.32 129.425L1164.24 129.047L1165.17 128.669L1114.11 3.6843L1113.18 4.0625ZM1164.24 129.047V130.047H1166.91V129.047V128.047H1164.24V129.047ZM1166.91 129.047L1167.84 129.425L1218.9 4.4407L1217.98 4.0625L1217.05 3.6843L1165.99 128.669L1166.91 129.047ZM1217.98 4.0625V5.0625H1288.34V4.0625V3.0625H1217.98V4.0625ZM1288.34 4.0625H1287.34V219H1288.34H1289.34V4.0625H1288.34ZM1288.34 219V218H1233.12V219V220H1288.34V219ZM1233.12 219H1234.12V92.5312H1233.12H1232.12V219H1233.12ZM1233.12 92.5312V91.5312H1231.34V92.5312V93.5312H1233.12V92.5312ZM1231.34 92.5312L1230.41 92.1664L1181.42 217.151L1182.35 217.516L1183.28 217.881L1232.27 92.8961L1231.34 92.5312ZM1182.35 217.516V216.516H1148.51V217.516V218.516H1182.35V217.516ZM1148.51 217.516L1149.44 217.155L1100.75 91.2799L1099.82 91.6406L1098.89 92.0014L1147.58 217.876L1148.51 217.516ZM1099.82 91.6406V90.6406H1098.04V91.6406V92.6406H1099.82V91.6406ZM1098.04 91.6406H1097.04V219H1098.04H1099.04V91.6406H1098.04ZM1098.04 219V218H1042.82V219V220H1098.04V219ZM1042.82 219H1043.82V4.0625H1042.82H1041.82V219H1042.82ZM1305.27 219H1304.27V220H1305.27V219ZM1305.27 4.0625V3.0625H1304.27V4.0625H1305.27ZM1458.75 4.0625H1459.75V3.0625H1458.75V4.0625ZM1458.75 49.7812V50.7812H1459.75V49.7812H1458.75ZM1361.68 49.7812V48.7812H1360.68V49.7812H1361.68ZM1361.68 88.6719H1360.68V89.6719H1361.68V88.6719ZM1450.74 88.6719H1451.74V87.6719H1450.74V88.6719ZM1450.74 134.391V135.391H1451.74V134.391H1450.74ZM1361.68 134.391V133.391H1360.68V134.391H1361.68ZM1361.68 173.281H1360.68V174.281H1361.68V173.281ZM1458.46 173.281H1459.46V172.281H1458.46V173.281ZM1458.46 219V220H1459.46V219H1458.46ZM1305.27 219H1306.27V4.0625H1305.27H1304.27V219H1305.27ZM1305.27 4.0625V5.0625H1458.75V4.0625V3.0625H1305.27V4.0625ZM1458.75 4.0625H1457.75V49.7812H1458.75H1459.75V4.0625H1458.75ZM1458.75 49.7812V48.7812H1361.68V49.7812V50.7812H1458.75V49.7812ZM1361.68 49.7812H1360.68V88.6719H1361.68H1362.68V49.7812H1361.68ZM1361.68 88.6719V89.6719H1450.74V88.6719V87.6719H1361.68V88.6719ZM1450.74 88.6719H1449.74V134.391H1450.74H1451.74V88.6719H1450.74ZM1450.74 134.391V133.391H1361.68V134.391V135.391H1450.74V134.391ZM1361.68 134.391H1360.68V173.281H1361.68H1362.68V134.391H1361.68ZM1361.68 173.281V174.281H1458.46V173.281V172.281H1361.68V173.281ZM1458.46 173.281H1457.46V219H1458.46H1459.46V173.281H1458.46ZM1458.46 219V218H1305.27V219V220H1458.46V219Z" fill="white" fill-opacity="0.3" mask="url(#path-1-outside-1_613_2511)"/>
</svg>
